<svg viewBox="0 0 512 512" xmlns="http://www.w3.org/2000/svg">
  <g>
    <circle cx="406.101" cy="176.190" r="3" fill="#7a7a7a" opacity="0.7"/>
    <circle cx="411.900" cy="188.213" r="3" fill="#7a7a7a" opacity="0.7"/>
    <circle cx="416.738" cy="200.653" r="3" fill="#7a7a7a" opacity="0.7"/>
    <circle cx="420.585" cy="213.435" r="3" fill="#7a7a7a" opacity="0.7"/>
    <circle cx="423.417" cy="226.480" r="3" fill="#7a7a7a" opacity="0.7"/>
    <circle cx="425.217" cy="239.706" r="3" fill="#7a7a7a" opacity="0.7"/>
    <circle cx="425.974" cy="253.033" r="3" fill="#7a7a7a" opacity="0.7"/>
    <circle cx="425.683" cy="266.378" r="3" fill="#7a7a7a" opacity="0.7"/>
    <circle cx="424.346" cy="279.659" r="3" fill="#7a7a7a" opacity="0.7"/>
    <circle cx="421.970" cy="292.795" r="3" fill="#7a7a7a" opacity="0.7"/>
    <circle cx="418.572" cy="305.703" r="3" fill="#7a7a7a" opacity="0.7"/>
    <circle cx="414.171" cy="318.305" r="3" fill="#7a7a7a" opacity="0.7"/>
    <circle cx="408.795" cy="330.523" r="3" fill="#7a7a7a" opacity="0.7"/>
    <circle cx="402.477" cy="342.282" r="3" fill="#7a7a7a" opacity="0.7"/>
    <circle cx="395.256" cy="353.508" r="3" fill="#7a7a7a" opacity="0.7"/>
    <circle cx="387.176" cy="364.133" r="3" fill="#7a7a7a" opacity="0.7"/>
    <circle cx="378.288" cy="374.092" r="3" fill="#7a7a7a" opacity="0.7"/>
    <circle cx="368.645" cy="383.322" r="3" fill="#7a7a7a" opacity="0.7"/>
    <circle cx="358.309" cy="391.768" r="3" fill="#7a7a7a" opacity="0.7"/>
    <circle cx="347.341" cy="399.377" r="3" fill="#7a7a7a" opacity="0.7"/>
    <circle cx="335.810" cy="406.101" r="3" fill="#7a7a7a" opacity="0.7"/>
    <circle cx="323.787" cy="411.900" r="3" fill="#7a7a7a" opacity="0.7"/>
    <circle cx="311.347" cy="416.738" r="3" fill="#7a7a7a" opacity="0.7"/>
    <circle cx="298.565" cy="420.585" r="3" fill="#7a7a7a" opacity="0.7"/>
    <circle cx="285.520" cy="423.417" r="3" fill="#7a7a7a" opacity="0.7"/>
    <circle cx="272.294" cy="425.217" r="3" fill="#7a7a7a" opacity="0.7"/>
    <circle cx="258.967" cy="425.974" r="3" fill="#7a7a7a" opacity="0.7"/>
    <circle cx="245.622" cy="425.683" r="3" fill="#7a7a7a" opacity="0.7"/>
    <circle cx="232.341" cy="424.346" r="3" fill="#7a7a7a" opacity="0.7"/>
    <circle cx="219.205" cy="421.970" r="3" fill="#7a7a7a" opacity="0.7"/>
    <circle cx="206.297" cy="418.572" r="3" fill="#7a7a7a" opacity="0.7"/>
    <circle cx="193.695" cy="414.171" r="3" fill="#7a7a7a" opacity="0.7"/>
    <circle cx="181.477" cy="408.795" r="3" fill="#7a7a7a" opacity="0.7"/>
    <circle cx="169.718" cy="402.477" r="3" fill="#7a7a7a" opacity="0.7"/>
    <circle cx="158.492" cy="395.256" r="3" fill="#7a7a7a" opacity="0.7"/>
    <circle cx="147.867" cy="387.176" r="3" fill="#7a7a7a" opacity="0.7"/>
    <circle cx="137.908" cy="378.288" r="3" fill="#7a7a7a" opacity="0.7"/>
    <circle cx="128.678" cy="368.645" r="3" fill="#7a7a7a" opacity="0.7"/>
    <circle cx="120.232" cy="358.309" r="3" fill="#7a7a7a" opacity="0.7"/>
    <circle cx="112.623" cy="347.341" r="3" fill="#7a7a7a" opacity="0.7"/>
    <circle cx="105.899" cy="335.810" r="3" fill="#7a7a7a" opacity="0.7"/>
    <circle cx="100.100" cy="323.787" r="3" fill="#7a7a7a" opacity="0.7"/>
    <circle cx="95.262" cy="311.347" r="3" fill="#7a7a7a" opacity="0.7"/>
    <circle cx="91.415" cy="298.565" r="3" fill="#7a7a7a" opacity="0.7"/>
    <circle cx="88.583" cy="285.520" r="3" fill="#7a7a7a" opacity="0.7"/>
    <circle cx="86.783" cy="272.294" r="3" fill="#7a7a7a" opacity="0.7"/>
    <circle cx="86.026" cy="258.967" r="3" fill="#7a7a7a" opacity="0.7"/>
    <circle cx="86.317" cy="245.622" r="3" fill="#7a7a7a" opacity="0.7"/>
    <circle cx="87.654" cy="232.341" r="3" fill="#7a7a7a" opacity="0.7"/>
    <circle cx="90.030" cy="219.205" r="3" fill="#7a7a7a" opacity="0.7"/>
    <circle cx="93.428" cy="206.297" r="3" fill="#7a7a7a" opacity="0.7"/>
    <circle cx="97.829" cy="193.695" r="3" fill="#7a7a7a" opacity="0.7"/>
    <circle cx="103.205" cy="181.477" r="3" fill="#7a7a7a" opacity="0.7"/>
    <circle cx="109.523" cy="169.718" r="3" fill="#7a7a7a" opacity="0.7"/>
    <circle cx="116.744" cy="158.492" r="3" fill="#7a7a7a" opacity="0.7"/>
    <circle cx="124.824" cy="147.867" r="3" fill="#7a7a7a" opacity="0.7"/>
    <circle cx="133.712" cy="137.908" r="3" fill="#7a7a7a" opacity="0.7"/>
    <circle cx="143.355" cy="128.678" r="3" fill="#7a7a7a" opacity="0.7"/>
    <circle cx="153.691" cy="120.232" r="3" fill="#7a7a7a" opacity="0.7"/>
    <circle cx="164.659" cy="112.623" r="3" fill="#7a7a7a" opacity="0.7"/>
    <circle cx="176.190" cy="105.899" r="3" fill="#7a7a7a" opacity="0.7"/>
    <circle cx="188.213" cy="100.100" r="3" fill="#7a7a7a" opacity="0.7"/>
    <circle cx="200.653" cy="95.262" r="3" fill="#7a7a7a" opacity="0.7"/>
    <circle cx="213.435" cy="91.415" r="3" fill="#7a7a7a" opacity="0.7"/>
    <circle cx="226.480" cy="88.583" r="3" fill="#7a7a7a" opacity="0.7"/>
    <circle cx="239.706" cy="86.783" r="3" fill="#7a7a7a" opacity="0.7"/>
    <circle cx="253.033" cy="86.026" r="3" fill="#7a7a7a" opacity="0.7"/>
    <circle cx="266.378" cy="86.317" r="3" fill="#7a7a7a" opacity="0.7"/>
    <circle cx="279.659" cy="87.654" r="3" fill="#7a7a7a" opacity="0.7"/>
    <circle cx="292.795" cy="90.030" r="3" fill="#7a7a7a" opacity="0.7"/>
    <circle cx="305.703" cy="93.428" r="3" fill="#7a7a7a" opacity="0.7"/>
    <circle cx="318.305" cy="97.829" r="3" fill="#7a7a7a" opacity="0.7"/>
    <circle cx="330.523" cy="103.205" r="3" fill="#7a7a7a" opacity="0.7"/>
    <circle cx="342.282" cy="109.523" r="3" fill="#7a7a7a" opacity="0.7"/>
    <circle cx="353.508" cy="116.744" r="3" fill="#7a7a7a" opacity="0.7"/>
    <circle cx="364.133" cy="124.824" r="3" fill="#7a7a7a" opacity="0.7"/>
    <circle cx="374.092" cy="133.712" r="3" fill="#7a7a7a" opacity="0.7"/>
    <circle cx="383.322" cy="143.355" r="3" fill="#7a7a7a" opacity="0.7"/>
    <circle cx="391.768" cy="153.691" r="3" fill="#7a7a7a" opacity="0.7"/>
    <circle cx="399.377" cy="164.659" r="3" fill="#7a7a7a" opacity="0.7"/>
  </g>
  <g>
    <circle cx="149.778" cy="236.883" r="3" fill="#9a9a9a" opacity="0.7"/>
    <circle cx="140.873" cy="227.632" r="3" fill="#9a9a9a" opacity="0.7"/>
    <circle cx="133.375" cy="217.207" r="3" fill="#9a9a9a" opacity="0.7"/>
    <circle cx="127.436" cy="205.822" r="3" fill="#9a9a9a" opacity="0.7"/>
    <circle cx="123.179" cy="193.707" r="3" fill="#9a9a9a" opacity="0.7"/>
    <circle cx="120.688" cy="181.110" r="3" fill="#9a9a9a" opacity="0.7"/>
    <circle cx="120.016" cy="168.287" r="3" fill="#9a9a9a" opacity="0.7"/>
    <circle cx="121.176" cy="155.498" r="3" fill="#9a9a9a" opacity="0.7"/>
    <circle cx="124.144" cy="143.005" r="3" fill="#9a9a9a" opacity="0.7"/>
    <circle cx="128.860" cy="131.061" r="3" fill="#9a9a9a" opacity="0.7"/>
    <circle cx="135.227" cy="119.910" r="3" fill="#9a9a9a" opacity="0.7"/>
    <circle cx="143.117" cy="109.778" r="3" fill="#9a9a9a" opacity="0.7"/>
    <circle cx="152.368" cy="100.873" r="3" fill="#9a9a9a" opacity="0.7"/>
    <circle cx="162.793" cy="93.375" r="3" fill="#9a9a9a" opacity="0.7"/>
    <circle cx="174.178" cy="87.436" r="3" fill="#9a9a9a" opacity="0.7"/>
    <circle cx="186.293" cy="83.179" r="3" fill="#9a9a9a" opacity="0.7"/>
    <circle cx="198.890" cy="80.688" r="3" fill="#9a9a9a" opacity="0.7"/>
    <circle cx="211.713" cy="80.016" r="3" fill="#9a9a9a" opacity="0.7"/>
    <circle cx="224.502" cy="81.176" r="3" fill="#9a9a9a" opacity="0.7"/>
    <circle cx="236.995" cy="84.144" r="3" fill="#9a9a9a" opacity="0.7"/>
    <circle cx="248.939" cy="88.860" r="3" fill="#9a9a9a" opacity="0.7"/>
    <circle cx="260.090" cy="95.227" r="3" fill="#9a9a9a" opacity="0.7"/>
    <circle cx="270.222" cy="103.117" r="3" fill="#9a9a9a" opacity="0.7"/>
    <circle cx="279.127" cy="112.368" r="3" fill="#9a9a9a" opacity="0.7"/>
    <circle cx="286.625" cy="122.793" r="3" fill="#9a9a9a" opacity="0.7"/>
    <circle cx="292.564" cy="134.178" r="3" fill="#9a9a9a" opacity="0.7"/>
    <circle cx="296.821" cy="146.293" r="3" fill="#9a9a9a" opacity="0.7"/>
    <circle cx="299.312" cy="158.890" r="3" fill="#9a9a9a" opacity="0.7"/>
    <circle cx="299.984" cy="171.713" r="3" fill="#9a9a9a" opacity="0.7"/>
    <circle cx="298.824" cy="184.502" r="3" fill="#9a9a9a" opacity="0.7"/>
    <circle cx="295.856" cy="196.995" r="3" fill="#9a9a9a" opacity="0.7"/>
    <circle cx="291.140" cy="208.939" r="3" fill="#9a9a9a" opacity="0.7"/>
    <circle cx="284.773" cy="220.090" r="3" fill="#9a9a9a" opacity="0.7"/>
    <circle cx="276.883" cy="230.222" r="3" fill="#9a9a9a" opacity="0.7"/>
    <circle cx="267.632" cy="239.127" r="3" fill="#9a9a9a" opacity="0.7"/>
    <circle cx="257.207" cy="246.625" r="3" fill="#9a9a9a" opacity="0.7"/>
    <circle cx="245.822" cy="252.564" r="3" fill="#9a9a9a" opacity="0.7"/>
    <circle cx="233.707" cy="256.821" r="3" fill="#9a9a9a" opacity="0.7"/>
    <circle cx="221.110" cy="259.312" r="3" fill="#9a9a9a" opacity="0.7"/>
    <circle cx="208.287" cy="259.984" r="3" fill="#9a9a9a" opacity="0.7"/>
    <circle cx="195.498" cy="258.824" r="3" fill="#9a9a9a" opacity="0.7"/>
    <circle cx="183.005" cy="255.856" r="3" fill="#9a9a9a" opacity="0.7"/>
    <circle cx="171.061" cy="251.140" r="3" fill="#9a9a9a" opacity="0.7"/>
    <circle cx="159.910" cy="244.773" r="3" fill="#9a9a9a" opacity="0.7"/>
  </g>
  <g>
    <circle cx="336.701" cy="318.832" r="3" fill="#8a8a8a" opacity="0.7"/>
    <circle cx="323.291" cy="319.955" r="3" fill="#8a8a8a" opacity="0.7"/>
    <circle cx="309.839" cy="319.569" r="3" fill="#8a8a8a" opacity="0.7"/>
    <circle cx="296.516" cy="317.680" r="3" fill="#8a8a8a" opacity="0.7"/>
    <circle cx="283.488" cy="314.310" r="3" fill="#8a8a8a" opacity="0.7"/>
    <circle cx="270.918" cy="309.503" r="3" fill="#8a8a8a" opacity="0.7"/>
    <circle cx="258.967" cy="303.319" r="3" fill="#8a8a8a" opacity="0.7"/>
    <circle cx="247.782" cy="295.836" r="3" fill="#8a8a8a" opacity="0.7"/>
    <circle cx="237.506" cy="287.148" r="3" fill="#8a8a8a" opacity="0.7"/>
    <circle cx="228.267" cy="277.363" r="3" fill="#8a8a8a" opacity="0.7"/>
    <circle cx="220.182" cy="266.606" r="3" fill="#8a8a8a" opacity="0.7"/>
    <circle cx="213.352" cy="255.011" r="3" fill="#8a8a8a" opacity="0.7"/>
    <circle cx="207.863" cy="242.725" r="3" fill="#8a8a8a" opacity="0.7"/>
    <circle cx="203.785" cy="229.901" r="3" fill="#8a8a8a" opacity="0.7"/>
    <circle cx="201.168" cy="216.701" r="3" fill="#8a8a8a" opacity="0.7"/>
    <circle cx="200.045" cy="203.291" r="3" fill="#8a8a8a" opacity="0.7"/>
    <circle cx="200.431" cy="189.839" r="3" fill="#8a8a8a" opacity="0.7"/>
    <circle cx="202.320" cy="176.516" r="3" fill="#8a8a8a" opacity="0.7"/>
    <circle cx="205.690" cy="163.488" r="3" fill="#8a8a8a" opacity="0.7"/>
    <circle cx="210.497" cy="150.918" r="3" fill="#8a8a8a" opacity="0.7"/>
    <circle cx="216.681" cy="138.967" r="3" fill="#8a8a8a" opacity="0.7"/>
    <circle cx="224.164" cy="127.782" r="3" fill="#8a8a8a" opacity="0.7"/>
    <circle cx="232.852" cy="117.506" r="3" fill="#8a8a8a" opacity="0.7"/>
    <circle cx="242.637" cy="108.267" r="3" fill="#8a8a8a" opacity="0.7"/>
    <circle cx="253.394" cy="100.182" r="3" fill="#8a8a8a" opacity="0.7"/>
    <circle cx="264.989" cy="93.352" r="3" fill="#8a8a8a" opacity="0.7"/>
    <circle cx="277.275" cy="87.863" r="3" fill="#8a8a8a" opacity="0.7"/>
    <circle cx="290.099" cy="83.785" r="3" fill="#8a8a8a" opacity="0.7"/>
    <circle cx="303.299" cy="81.168" r="3" fill="#8a8a8a" opacity="0.7"/>
    <circle cx="316.709" cy="80.045" r="3" fill="#8a8a8a" opacity="0.7"/>
    <circle cx="330.161" cy="80.431" r="3" fill="#8a8a8a" opacity="0.7"/>
    <circle cx="343.484" cy="82.320" r="3" fill="#8a8a8a" opacity="0.7"/>
    <circle cx="356.512" cy="85.690" r="3" fill="#8a8a8a" opacity="0.7"/>
    <circle cx="369.082" cy="90.497" r="3" fill="#8a8a8a" opacity="0.7"/>
    <circle cx="381.033" cy="96.681" r="3" fill="#8a8a8a" opacity="0.7"/>
    <circle cx="392.218" cy="104.164" r="3" fill="#8a8a8a" opacity="0.7"/>
    <circle cx="402.494" cy="112.852" r="3" fill="#8a8a8a" opacity="0.7"/>
    <circle cx="411.733" cy="122.637" r="3" fill="#8a8a8a" opacity="0.7"/>
    <circle cx="419.818" cy="133.394" r="3" fill="#8a8a8a" opacity="0.7"/>
    <circle cx="426.648" cy="144.989" r="3" fill="#8a8a8a" opacity="0.7"/>
    <circle cx="432.137" cy="157.275" r="3" fill="#8a8a8a" opacity="0.7"/>
    <circle cx="436.215" cy="170.099" r="3" fill="#8a8a8a" opacity="0.7"/>
    <circle cx="438.832" cy="183.299" r="3" fill="#8a8a8a" opacity="0.7"/>
    <circle cx="439.955" cy="196.709" r="3" fill="#8a8a8a" opacity="0.7"/>
    <circle cx="439.569" cy="210.161" r="3" fill="#8a8a8a" opacity="0.7"/>
    <circle cx="437.680" cy="223.484" r="3" fill="#8a8a8a" opacity="0.7"/>
    <circle cx="434.310" cy="236.512" r="3" fill="#8a8a8a" opacity="0.7"/>
    <circle cx="429.503" cy="249.082" r="3" fill="#8a8a8a" opacity="0.7"/>
    <circle cx="423.319" cy="261.033" r="3" fill="#8a8a8a" opacity="0.7"/>
    <circle cx="415.836" cy="272.218" r="3" fill="#8a8a8a" opacity="0.7"/>
    <circle cx="407.148" cy="282.494" r="3" fill="#8a8a8a" opacity="0.7"/>
    <circle cx="397.363" cy="291.733" r="3" fill="#8a8a8a" opacity="0.7"/>
    <circle cx="386.606" cy="299.818" r="3" fill="#8a8a8a" opacity="0.7"/>
    <circle cx="375.011" cy="306.648" r="3" fill="#8a8a8a" opacity="0.7"/>
    <circle cx="362.725" cy="312.137" r="3" fill="#8a8a8a" opacity="0.7"/>
    <circle cx="349.901" cy="316.215" r="3" fill="#8a8a8a" opacity="0.7"/>
  </g>
  <g stroke="#bdbdbd" stroke-width="4" stroke-linecap="round">
    <line x1="406.101" y1="176.190" x2="149.778" y2="236.883"/>
    <line x1="149.778" y1="236.883" x2="336.701" y2="318.832"/>
    <line x1="336.701" y1="318.832" x2="406.101" y2="176.190"/>
  </g>
  <circle cx="406.101" cy="176.190" r="48" fill="#5a5a5a"/>
  <circle cx="149.778" cy="236.883" r="36" fill="#8a8a8a"/>
  <circle cx="336.701" cy="318.832" r="24" fill="#6f6f6f"/>
</svg>
